<svg width="157" height="157" viewBox="0 0 157 157" fill="none" xmlns="http://www.w3.org/2000/svg">
<g clip-path="url(#clip0_1_96)">
<path d="M95.9444 17.4444V11.4261C95.9561 11.0824 95.8999 10.7398 95.779 10.4178C95.6582 10.0959 95.4751 9.80095 95.2402 9.54984C95.0052 9.29872 94.7231 9.09636 94.41 8.95435C94.0968 8.81233 93.7587 8.73343 93.415 8.72217H63.585C63.2413 8.73343 62.9032 8.81233 62.59 8.95435C62.2769 9.09636 61.9948 9.29872 61.7598 9.54984C61.5249 9.80095 61.3418 10.0959 61.221 10.4178C61.1001 10.7398 61.0439 11.0824 61.0556 11.4261V17.4444H43.6111C42.4345 17.5417 41.3362 18.0735 40.5301 18.936C39.7239 19.7986 39.2676 20.9303 39.25 22.1108V144.222C39.3274 145.325 39.8208 146.357 40.6304 147.11C41.4401 147.863 42.5055 148.28 43.6111 148.278H113.389C114.502 148.28 115.573 147.856 116.384 147.094C117.194 146.332 117.683 145.289 117.75 144.178V22.0672C117.722 20.8943 117.261 19.7733 116.456 18.9199C115.65 18.0664 114.558 17.5409 113.389 17.4444H95.9444ZM88.3561 110.947C88.9749 112.19 89.0744 113.628 88.6328 114.945C88.1911 116.262 87.2445 117.349 86.0011 117.968C84.7577 118.587 83.3194 118.686 82.0027 118.245C80.6859 117.803 79.5985 116.856 78.9797 115.613L55.1681 67.8588L81.3347 72.2199L71.3478 54.7755C71.0042 54.1799 70.7812 53.5224 70.6917 52.8406C70.6021 52.1589 70.6478 51.4661 70.8259 50.802C71.0041 50.1378 71.3114 49.5153 71.7302 48.9699C72.1489 48.4245 72.671 47.9669 73.2667 47.6233C73.8623 47.2797 74.5198 47.0567 75.2015 46.9672C75.8833 46.8776 76.576 46.9233 77.2402 47.1014C77.9043 47.2796 78.5269 47.5869 79.0723 48.0057C79.6177 48.4244 80.0753 48.9465 80.4189 49.5422L101.483 86.0447L73.7028 81.5527L88.3561 110.947Z" fill="black"/>
</g>
<defs>
<clipPath id="clip0_1_96">
<rect width="157" height="157" fill="white"/>
</clipPath>
</defs>
</svg>
