<svg width="100" height="100" viewBox="0 0 141 157" fill="none" xmlns="http://www.w3.org/2000/svg">
<path fill-rule="evenodd" clip-rule="evenodd" d="M78.0828 38.7397L93.6871 51.653L78.0828 64.5662V38.7397ZM78.0828 118.26L93.6871 105.347L78.0828 92.4338V118.26ZM61.3639 78.5883L27.4755 50.3676L37.2816 42.2526L64.2571 64.5662V11.0685L113.311 51.653L80.976 78.5981L113.524 105.533L64.4824 146.128V92.4338L37.2816 114.747L27.4755 106.632L61.3639 78.5883ZM70.4941 157C111.971 157 140.5 140.76 140.5 78.4019C140.5 16.2397 111.971 0 70.5059 0C29.0407 0 0.5 16.2397 0.5 78.5981C0.5 140.751 29.0288 157 70.4941 157Z" fill="black"/>
</svg>
