<svg width="100" height="100" viewBox="0 0 157 157" fill="none" xmlns="http://www.w3.org/2000/svg">
<path d="M78.5 148.823C117.338 148.823 148.823 117.338 148.823 78.5C148.823 39.6618 117.338 8.17712 78.5 8.17712C39.6617 8.17712 8.17709 39.6618 8.17709 78.5C8.17709 117.338 39.6617 148.823 78.5 148.823Z" stroke="black" stroke-linecap="round" stroke-linejoin="round"/>
<path d="M65.4527 63.8368C65.4252 62.1058 65.7425 60.3867 66.386 58.7795C67.0295 57.1723 67.9863 55.7092 69.2007 54.4754C70.4151 53.2416 71.8629 52.2617 73.4597 51.5929C75.0565 50.924 76.7704 50.5796 78.5016 50.5796C80.2329 50.5796 81.9468 50.924 83.5436 51.5929C85.1404 52.2617 86.5882 53.2416 87.8026 54.4754C89.017 55.7092 89.9738 57.1723 90.6173 58.7795C91.2608 60.3867 91.578 62.1058 91.5506 63.8368C91.5504 66.123 90.9496 68.369 89.8085 70.3499C88.6673 72.3309 87.0258 73.9774 85.0482 75.1245C92.2571 77.8229 99.7048 87.0172 99.7016 94.8312H57.2952C57.2952 87.0139 64.7462 77.8229 71.9518 75.1245C69.9742 73.9774 68.3327 72.3309 67.1915 70.3499C66.0504 68.369 65.4529 66.123 65.4527 63.8368Z" stroke="black" stroke-linecap="round" stroke-linejoin="round"/>
<path d="M8.17709 78.5C15.4318 76.3968 16.328 85.8168 16.9593 90.9847C18.2284 96.9376 24.3841 97.0685 23.2197 90.2128C21.4272 81.7446 19.4778 73.1816 23.6547 65.1419C26.4905 60.687 33.6961 60.3305 30.3926 69.865C24.0864 88.0573 33.2415 101.981 38.9622 100.251C47.4009 97.7063 29.4212 77.9472 44.5618 48.1237C51.4306 34.5858 61.665 42.3213 56.9747 48.8172C45.7917 64.3046 34.8278 88.7704 59.7581 105.582C65.3319 109.318 71.8998 111.291 78.6091 111.246C85.3184 111.201 91.8593 109.14 97.3825 105.331C125.567 85.8299 106.328 56.7686 100.052 48.6307C95.2728 42.4358 105.514 34.6119 112.435 48.1205C127.589 77.7084 109.799 97.5133 117.842 100.179C123.762 102.142 132.91 88.0606 126.607 69.865C123.304 60.3272 130.506 60.687 133.345 65.1419C137.882 72.9919 135.308 81.8885 133.777 90.2128C132.613 97.0685 138.768 96.9376 140.037 90.9847C140.662 84.8912 142.635 75.2324 148.82 78.5" stroke="black" stroke-linecap="round" stroke-linejoin="round"/>
</svg>
